{
  "accessors": [
    {
      "bufferView": 2,
      "componentType": 5126,
      "count": 126,
      "max": [
        148.2887420654297,
        15.819914817810059,
        129.6558837890625
      ],
      "min": [
        -137.43609619140625,
        1.5894768238067627,
        -130.28634643554688
      ],
      "type": "VEC3"
    },
    {
      "bufferView": 2,
      "byteOffset": 1512,
      "componentType": 5126,
      "count": 126,
      "max": [
        0.9981862306594849,
        0.9998358488082886,
        1.0
      ],
      "min": [
        -0.999443531036377,
        -0.18772174417972565,
        -0.9999386072158813
      ],
      "type": "VEC3"
    },
    {
      "bufferView": 3,
      "componentType": 5126,
      "count": 126,
      "max": [
        1.0,
        0.19865135848522186,
        -0.0,
        1.0
      ],
      "min": [
        -0.01158621720969677,
        -0.32976457476615906,
        -1.0,
        -1.0
      ],
      "type": "VEC4"
    },
    {
      "bufferView": 1,
      "componentType": 5126,
      "count": 126,
      "max": [
        0.9556043744087219,
        0.873315691947937
      ],
      "min": [
        0.04566910117864609,
        0.09724671393632889
      ],
      "type": "VEC2"
    },
    {
      "bufferView": 1,
      "byteOffset": 1008,
      "componentType": 5126,
      "count": 126,
      "max": [
        0.9556043744087219,
        0.873315691947937
      ],
      "min": [
        0.04566910117864609,
        0.09724671393632889
      ],
      "type": "VEC2"
    },
    {
      "bufferView": 0,
      "componentType": 5125,
      "count": 354,
      "type": "SCALAR"
    },
    {
      "bufferView": 2,
      "byteOffset": 3024,
      "componentType": 5126,
      "count": 62,
      "max": [
        148.2887420654297,
        15.625826835632324,
        129.6558837890625
      ],
      "min": [
        -137.43109130859375,
        1.5894768238067627,
        -130.24853515625
      ],
      "type": "VEC3"
    },
    {
      "bufferView": 2,
      "byteOffset": 3768,
      "componentType": 5126,
      "count": 62,
      "max": [
        0.060214024037122726,
        -0.9441121220588684,
        0.3292108476161957
      ],
      "min": [
        -0.2861499488353729,
        -0.9998358488082886,
        -0.20203858613967896
      ],
      "type": "VEC3"
    },
    {
      "bufferView": 3,
      "byteOffset": 2016,
      "componentType": 5126,
      "count": 62,
      "max": [
        5.186724933992082e-07,
        0.2021108865737915,
        -0.944254457950592,
        -1.0
      ],
      "min": [
        -0.011459716595709324,
        -0.3291235864162445,
        -1.0,
        -1.0
      ],
      "type": "VEC4"
    },
    {
      "bufferView": 1,
      "byteOffset": 2016,
      "componentType": 5126,
      "count": 62,
      "max": [
        0.9556043744087219,
        0.873315691947937
      ],
      "min": [
        0.04566910117864609,
        0.09724671393632889
      ],
      "type": "VEC2"
    },
    {
      "bufferView": 1,
      "byteOffset": 2512,
      "componentType": 5126,
      "count": 62,
      "max": [
        0.9556043744087219,
        0.873315691947937
      ],
      "min": [
        0.04566910117864609,
        0.09724671393632889
      ],
      "type": "VEC2"
    },
    {
      "bufferView": 0,
      "byteOffset": 1416,
      "componentType": 5125,
      "count": 186,
      "type": "SCALAR"
    }
  ],
  "asset": {
    "extras": {
      "author": "tosyk (https://sketchfab.com/tosyk)",
      "license": "CC-BY-4.0 (http://creativecommons.org/licenses/by/4.0/)",
      "source": "https://sketchfab.com/3d-models/old-photo-c2d8dcbec3ba4508b43b073a17711a62",
      "title": "old_photo"
    },
    "generator": "Sketchfab-12.67.0",
    "version": "2.0"
  },
  "bufferViews": [
    {
      "buffer": 0,
      "byteLength": 2160,
      "name": "floatBufferViews",
      "target": 34963
    },
    {
      "buffer": 0,
      "byteLength": 3008,
      "byteOffset": 2160,
      "byteStride": 8,
      "name": "floatBufferViews",
      "target": 34962
    },
    {
      "buffer": 0,
      "byteLength": 4512,
      "byteOffset": 5168,
      "byteStride": 12,
      "name": "floatBufferViews",
      "target": 34962
    },
    {
      "buffer": 0,
      "byteLength": 3008,
      "byteOffset": 9680,
      "byteStride": 16,
      "name": "floatBufferViews",
      "target": 34962
    }
  ],
  "buffers": [
    {
      "byteLength": 12688,
      "uri": "scene.bin"
    }
  ],
  "images": [
    {
      "uri": "textures/front.001_baseColor.png"
    },
    {
      "uri": "textures/front.001_normal.png"
    },
    {
      "uri": "textures/back.001_baseColor.png"
    },
    {
      "uri": "textures/back.001_normal.png"
    }
  ],
  "materials": [
    {
      "alphaMode": "BLEND",
      "name": "front.001",
      "normalTexture": {
        "index": 1,
        "scale": 0.4394825164620689
      },
      "pbrMetallicRoughness": {
        "baseColorTexture": {
          "index": 0
        },
        "metallicFactor": 0.0,
        "roughnessFactor": 0.2692376678887815
      }
    },
    {
      "alphaMode": "BLEND",
      "name": "back.001",
      "normalTexture": {
        "index": 3,
        "scale": 0.7434911746286534
      },
      "pbrMetallicRoughness": {
        "baseColorTexture": {
          "index": 2
        },
        "metallicFactor": 0.0,
        "roughnessFactor": 0.858579
      }
    }
  ],
  "meshes": [
    {
      "name": "Object_0",
      "primitives": [
        {
          "attributes": {
            "NORMAL": 1,
            "POSITION": 0,
            "TANGENT": 2,
            "TEXCOORD_0": 3,
            "TEXCOORD_1": 4
          },
          "indices": 5,
          "material": 0,
          "mode": 4
        }
      ]
    },
    {
      "name": "Object_1",
      "primitives": [
        {
          "attributes": {
            "NORMAL": 7,
            "POSITION": 6,
            "TANGENT": 8,
            "TEXCOORD_0": 9,
            "TEXCOORD_1": 10
          },
          "indices": 11,
          "material": 1,
          "mode": 4
        }
      ]
    }
  ],
  "nodes": [
    {
      "children": [
        1
      ],
      "matrix": [
        1.0,
        0.0,
        0.0,
        0.0,
        0.0,
        2.220446049250313e-16,
        -1.0,
        0.0,
        0.0,
        1.0,
        2.220446049250313e-16,
        0.0,
        0.0,
        0.0,
        0.0,
        1.0
      ],
      "name": "Sketchfab_model"
    },
    {
      "children": [
        2
      ],
      "name": "root"
    },
    {
      "children": [
        3
      ],
      "matrix": [
        1.0,
        0.0,
        0.0,
        0.0,
        0.0,
        2.220446049250313e-16,
        1.0,
        0.0,
        0.0,
        -1.0,
        2.220446049250313e-16,
        0.0,
        0.0,
        0.0,
        0.0,
        1.0
      ],
      "name": "GLTF_SceneRootNode"
    },
    {
      "children": [
        4,
        5
      ],
      "matrix": [
        8.429370624057187e-10,
        -0.009999999776482414,
        -1.6292066707106028e-09,
        0.0,
        -0.009999999776482414,
        -8.429367970624217e-10,
        -1.6292068080424587e-09,
        0.0,
        1.6292066707106028e-09,
        1.6292068080424587e-09,
        -0.009999999776482315,
        0.0,
        0.03602541983127594,
        0.11936866492033005,
        0.0,
        1.0
      ],
      "name": "old_photo_0"
    },
    {
      "mesh": 0,
      "name": "Object_4"
    },
    {
      "mesh": 1,
      "name": "Object_5"
    }
  ],
  "samplers": [
    {
      "magFilter": 9729,
      "minFilter": 9987,
      "wrapS": 10497,
      "wrapT": 10497
    }
  ],
  "scene": 0,
  "scenes": [
    {
      "name": "Sketchfab_Scene",
      "nodes": [
        0
      ]
    }
  ],
  "textures": [
    {
      "sampler": 0,
      "source": 0
    },
    {
      "sampler": 0,
      "source": 1
    },
    {
      "sampler": 0,
      "source": 2
    },
    {
      "sampler": 0,
      "source": 3
    }
  ]
}
